PathFileType	4	(X/Y/Z)	Walk10.trc
DataRate	CameraRate	NumFrames	NumMarkers	Units	OrigDataRate	OrigDataStartFrame	OrigNumFrames
200.000000	200.000000	4	60	mm	200.000000	396	568
Frame#	Times		LFHD		RFHD		CLAV		STRN		LASI		RASI		RACR1		RUA1		RElbow		RFA1		RWRR		RWRU		RCAR		LACR1		LUA1		LElbow		LFA1		LWRR		LWRU		LCAR		RTH2		RTB1		RTB2		LTH1		LTH3		LTH2		LLFC		LMFC		LTB1		LTB2		LTB4		LMT1		RTB4		LTB3		RTH3		RTB3		LToe		RMFC		LTH4		RElbowM		RTH4		RToe		RTH1		RMT1		RMMAL		RLFC		LBHD		RCAL		RBack		LMT5		RLMAL		RPSI		LMMAL		T10		C7		LPSI		LLMAL		LElbowM		LCAL		RBHD
			X1	Y1	Z1	X2	Y2	Z2	X3	Y3	Z3	X4	Y4	Z4	X5	Y5	Z5	X6	Y6	Z6	X7	Y7	Z7	X8	Y8	Z8	X9	Y9	Z9	X10	Y10	Z10	X11	Y11	Z11	X12	Y12	Z12	X13	Y13	Z13	X14	Y14	Z14	X15	Y15	Z15	X16	Y16	Z16	X17	Y17	Z17	X18	Y18	Z18	X19	Y19	Z19	X20	Y20	Z20	X21	Y21	Z21	X22	Y22	Z22	X23	Y23	Z23	X24	Y24	Z24	X25	Y25	Z25	X26	Y26	Z26	X27	Y27	Z27	X28	Y28	Z28	X29	Y29	Z29	X30	Y30	Z30	X31	Y31	Z31	X32	Y32	Z32	X33	Y33	Z33	X34	Y34	Z34	X35	Y35	Z35	X36	Y36	Z36	X37	Y37	Z37	X38	Y38	Z38	X39	Y39	Z39	X40	Y40	Z40	X41	Y41	Z41	X42	Y42	Z42	X43	Y43	Z43	X44	Y44	Z44	X45	Y45	Z45	X46	Y46	Z46	X47	Y47	Z47	X48	Y48	Z48	X49	Y49	Z49	X50	Y50	Z50	X51	Y51	Z51	X52	Y52	Z52	X53	Y53	Z53	X54	Y54	Z54	X55	Y55	Z55	X56	Y56	Z56	X57	Y57	Z57	X58	Y58	Z58	X59	Y59	Z59	X60	Y60	Z60

396	1.98	527.82	1668.8	11.259	533.62	1672.1	110.21	536.03	1414.1	74.55	605.11	1258.2	67.681	484.5	1004.3	-118.44	515.81	993.04	248.16	420.78	1493	248.11	397.4	1321.5	361.7	407.21	1171.3	406.68	439.16	1020.4	418.99	462.33	903.51	347.81	454.16	906.93	429.01	494.46	827.34	396.53	410.68	1477.5	-104.03	381.33	1307.1	-195.54	381.2	1144.8	-251.49	423.45	1011.7	-268.12	495.87	898.1	-213.86	451.98	874.91	-270.1	522.39	817.99	-251.17	518.36	713.4	247.83	543.16	378.56	152.63	508	291.11	200.42	459.73	771.31	-156.08	498.17	603.89	-156.07	534.11	701.02	-139.18	483.13	525.34	-156.67	516.44	508.02	-1.3195	494.63	390.02	-97.409	412.04	336.22	-130.21	443.61	325.81	-77.293	323.56	58.14	-48.865	524.08	294.46	141.13	384.51	263.31	-59.724	484.68	613.77	244.66	505.53	211.29	129.5	361.97	40.392	-93.376	479.49	504.63	79.959	477.88	689.01	-157.37	354.56	1102.6	309.13	462.99	695.54	259	618.67	31.859	133.46	439.42	777.86	273.54	573.41	26.719	99.704	446.84	84.232	66.701	489.15	497.64	234.59	376.91	1591.2	10.867	352.24	49.562	106.44	279.28	1369.9	191.13	265.57	82.562	-115.39	413.4	74.291	152	243.58	1034.5	111.21	252.88	177.83	27.721	284.33	1172.1	74.88	339.42	1489.5	78.692	250.08	1038.2	26.559	218.98	185.69	-55.303	328.37	1079.9	-157.29	166.48	187.64	6.5664	400.32	1601.3	157.32
397	1.985	533.49	1669.7	11.491	539.27	1673.1	110.43	541.64	1415.1	74.733	610.76	1259.2	67.866	490.87	1005.2	-117.65	521.32	994.64	248.19	426.31	1494	248.27	403.42	1322.5	362.07	414.09	1172.4	407.27	447.04	1021.8	419.58	471.11	905.05	348.4	462.83	908.45	429.62	503.61	829.07	397.13	416.35	1478.5	-103.87	386.27	1308.1	-195.23	384.74	1145.7	-250.96	425.5	1012.2	-267.81	496.96	897.76	-213.86	452.59	875.07	-269.95	522.39	817.29	-251.31	521.7	713.24	247.9	543.9	378.36	152.75	508.47	291	200.5	467.47	772.56	-155.49	507.51	605.48	-154.96	542.56	702.94	-138.28	493.16	526.83	-155.31	526.06	509.96	-0.099113	506.8	391.7	-96.322	425.36	336.32	-129.37	457.14	326.46	-76.469	343.35	56.97	-48.984	524.64	294.3	141.24	399.23	262.69	-59.099	487.04	613.96	244.81	505.91	211.19	129.58	382.31	40.404	-93.367	480.43	504.69	80.011	486.4	690.4	-156.48	361.78	1103.4	309.69	466.17	695.93	259.18	618.77	31.721	133.67	443.48	778.49	273.83	573.43	26.756	99.774	446.95	84.259	66.699	490.36	497.68	234.6	382.59	1592.2	11.073	352.31	49.679	106.41	284.95	1370.8	191.3	284.77	80.108	-115.5	413.49	74.396	151.99	249.17	1035.7	111.19	269.21	174.3	27.927	290.13	1173	75.092	345.12	1490.5	78.824	255.94	1039.1	26.536	235.31	181.54	-55.121	331.78	1081.3	-156.45	182.48	181.96	6.6041	405.96	1602.3	157.52
398	1.99	539.17	1670.6	11.698	544.93	1674	110.64	547.26	1416.1	74.899	616.4	1260.1	68.044	497.26	1006.1	-116.81	526.82	996.18	248.2	431.84	1494.9	248.42	409.43	1323.5	362.42	420.97	1173.5	407.85	454.91	1023.1	420.15	479.85	906.54	348.98	471.5	909.92	430.21	512.72	830.76	397.71	422.02	1479.4	-103.73	391.23	1309	-194.94	388.28	1146.6	-250.47	427.56	1012.6	-267.53	498.08	897.43	-213.89	453.23	875.23	-269.8	522.39	816.59	-251.45	525.03	713.06	247.93	544.63	378.15	152.85	508.93	290.89	200.57	475.16	773.77	-154.91	516.76	607.04	-153.83	550.93	704.81	-137.36	503.1	528.28	-153.93	535.56	511.85	1.1703	518.92	393.35	-95.2	438.68	336.39	-128.5	470.67	327.08	-75.623	363.23	55.815	-49.095	525.19	294.14	141.33	414.01	262.05	-58.467	489.4	614.14	244.94	506.3	211.08	129.64	402.69	40.446	-93.35	481.42	504.75	80.024	494.85	691.73	-155.58	368.96	1104.1	310.26	469.37	696.31	259.34	618.87	31.585	133.88	447.54	779.09	274.09	573.45	26.789	99.842	447.07	84.287	66.686	491.56	497.71	234.6	388.26	1593.1	11.251	352.39	49.797	106.36	290.61	1371.6	191.46	304.1	77.639	-115.61	413.58	74.502	151.97	254.74	1036.8	111.18	285.69	170.71	28.134	295.91	1173.9	75.274	350.82	1491.3	78.939	261.77	1040	26.509	251.82	177.33	-54.941	335.16	1082.7	-155.65	198.71	176.2	6.636	411.61	1603.2	157.7
399	1.995	544.86	1671.5	11.88	550.59	1674.8	110.81	552.87	1417	75.048	622.03	1261	68.217	503.66	1007	-115.93	532.3	997.65	248.19	437.36	1495.8	248.56	415.43	1324.4	362.76	427.85	1174.5	408.41	462.76	1024.4	420.7	488.55	907.99	349.55	480.14	911.35	430.8	521.81	832.4	398.26	427.71	1480.2	-103.6	396.19	1309.8	-194.68	391.83	1147.4	-250.01	429.63	1013.1	-267.26	499.21	897.09	-213.92	453.88	875.39	-269.67	522.41	815.91	-251.6	528.36	712.88	247.93	545.37	377.95	152.94	509.38	290.78	200.62	482.79	774.92	-154.33	525.92	608.54	-152.67	559.22	706.62	-136.41	512.94	529.68	-152.53	544.93	513.67	2.4847	530.98	394.99	-94.048	452	336.42	-127.62	484.2	327.69	-74.758	383.19	54.685	-49.2	525.73	293.98	141.42	428.84	261.4	-57.831	491.77	614.31	245.05	506.69	210.97	129.7	423.1	40.524	-93.33	482.47	504.8	80.005	503.24	693.01	-154.68	376.11	1104.8	310.81	472.57	696.67	259.47	618.96	31.452	134.08	451.6	779.67	274.33	573.47	26.818	99.908	447.2	84.315	66.662	492.74	497.74	234.57	393.95	1593.9	11.402	352.47	49.915	106.3	296.27	1372.4	191.6	323.51	75.169	-115.71	413.66	74.608	151.94	260.3	1037.9	111.18	302.34	167.06	28.348	301.69	1174.7	75.423	356.53	1492.2	79.04	267.58	1040.8	26.477	268.49	173.06	-54.759	338.52	1084	-154.9	215.16	170.37	6.668	417.26	1604	157.85
